<svg xmlns="http://www.w3.org/2000/svg" viewBox="0 0 312.92 56.99"><defs><style>.cls-1{fill:#191919;}.cls-2{fill:#ff414e;}.cls-3{fill:#fff;}</style></defs><title>branchinylogosvg</title><g id="Layer_2" data-name="Layer 2"><g id="Layer_1-2" data-name="Layer 1"><rect class="cls-1" x="84.08" y="52.23" width="149.32" height="4.76"/><polygon class="cls-1" points="87.85 36.91 87.85 56.99 83.09 56.99 83.09 38.48 83.77 36.91 87.85 36.91"/><polygon class="cls-1" points="99.69 32.49 96.61 25.37 95.74 23.34 95.72 23.31 94.88 21.37 91.81 14.27 90.94 12.25 90.92 12.2 90.27 10.68 82.6 10.68 76.01 25.93 76 25.95 75.13 27.97 72.05 35.08 71.22 37.02 71.21 37.02 70.34 39.05 67.26 46.17 75.69 46.17 78.07 40.63 78.99 38.5 79.63 37.02 79.64 37.02 80.47 35.08 80.47 35.07 82 31.54 86.46 21.24 86.5 21.34 86.51 21.37 87.34 23.31 90.4 30.44 90.87 31.54 86.09 31.54 83.77 36.91 83.09 38.48 83.08 38.5 93.88 38.5 97.17 46.17 105.6 46.17 99.69 32.49"/><polygon class="cls-2" points="70.34 39.05 67.27 46.17 75.7 46.17 70.34 39.05"/><polygon class="cls-3" points="76.56 44.13 79.64 37.01 71.2 37.01 76.56 44.13"/><polygon class="cls-3" points="75.12 27.96 72.04 35.08 80.47 35.08 75.12 27.96"/><polygon class="cls-3" points="81.33 33.05 84.41 25.92 75.98 25.92 81.33 33.05"/><polygon class="cls-2" points="96.63 25.35 99.71 32.48 91.26 32.48 96.63 25.35"/><polygon class="cls-3" points="90.4 30.45 87.31 23.31 95.76 23.31 90.4 30.45"/><polygon class="cls-3" points="91.84 14.24 94.92 21.37 86.47 21.37 91.84 14.24"/><polygon class="cls-2" points="85.61 19.34 82.53 12.2 90.97 12.2 85.61 19.34"/><path class="cls-1" d="M15.54,46.17H0V10.68H13.81a20.09,20.09,0,0,1,6.22.86A9,9,0,0,1,24,13.88a9.19,9.19,0,0,1,2.39,6.19c0,2.78-.9,4.84-2.69,6.2a8.79,8.79,0,0,1-1.27.88c-.24.12-.66.32-1.27.59a9.24,9.24,0,0,1,5.25,3,8.22,8.22,0,0,1,2,5.61,9.57,9.57,0,0,1-2.54,6.55q-2.94,3.3-10.25,3.3M7.92,25.05h3.76a12.82,12.82,0,0,0,4.9-.71c1.06-.48,1.59-1.5,1.59-3.08s-.49-2.61-1.47-3.12a11.78,11.78,0,0,0-5-.76H7.92Zm0,14.41h5.43a12,12,0,0,0,5.1-.83,3.31,3.31,0,0,0,1.7-3.3,3.17,3.17,0,0,0-1.8-3.25,15.3,15.3,0,0,0-5.76-.79H7.92Z"/><path class="cls-1" d="M63.76,22.46c0,5.68-2.25,9.36-6.75,11l9,12.7H56.25L48.38,34.85H42.9V38H35V10.68H48.43q8.28,0,11.81,2.79t3.52,9m-9.54,4.21a5.36,5.36,0,0,0,1.47-4.19c0-1.91-.51-3.22-1.52-3.93s-2.79-1.07-5.33-1.07H42.9V28h5.79c2.7,0,4.55-.44,5.53-1.32"/><path class="cls-1" d="M177,34.54a11.68,11.68,0,0,1-9.54,4.62,9.89,9.89,0,0,1-7.26-3,10.74,10.74,0,0,1-3-7.94,10.16,10.16,0,0,1,3.17-7.87,10.78,10.78,0,0,1,7.08-2.9V9.88a18.12,18.12,0,0,0-13,5.27,17.64,17.64,0,0,0-5.4,13.18,17.47,17.47,0,0,0,5.3,13.06,18.5,18.5,0,0,0,13.5,5.19q8.2,0,14.24-6.81Z"/><polygon class="cls-1" points="210.38 10.68 218.3 10.68 218.3 37.83 210.38 37.83 210.38 32.2 196.27 32.2 196.27 46.17 188.35 46.17 188.35 17.38 196.27 17.38 196.27 25.5 210.38 25.5 210.38 10.68"/><polygon class="cls-1" points="268.51 18.51 276.43 18.51 276.43 46.17 268.51 46.17 251.6 23.93 251.6 39.47 243.68 39.47 243.68 10.68 251.09 10.68 268.51 33.53 268.51 18.51"/><polygon class="cls-1" points="134.53 18.51 142.46 18.51 142.46 46.17 134.53 46.17 117.63 23.93 117.63 39.47 109.71 39.47 109.71 10.68 117.12 10.68 134.53 33.53 134.53 18.51"/><path class="cls-1" d="M285.37,14.15l3.06,11.42,2.14,3.06h0l.82,3,1.11-.29,1,3.8,2.72,10.18.33,1.23,1.47,1.09,1.09.8.69.51-.25-.91L298.74,45l-2.31-8.47-.23-.86-1.29-4.89,1.12-.3-.82-3.08.32-3.69-3.06-11.41-2.37.63L288.81,8.1l-2.56.69,1.28,4.78Zm.8-5.67,2.56-.69-1-3.55-2.56.69Zm-1.06-3.95,2.56-.69-.16-.6L285,3.93Zm.14-1.26,1.67-.45.13-2L285.28.06,284.14,1.6Z"/><path class="cls-1" d="M299.15,48.47l.44-.4.75-.69.68-2.44,2.48-8.89,1.27-4.67,1.12.3.83-3.08,2.12-3,3.06-11.41-2.37-.64,1.28-4.78L308.24,8,307,12.82l-2.16-.57-3.06,11.41.33,3.73h0l-.82,3,1.11.3-1.33,4.9-.21.84L298.74,45l-.68,2.72L297.48,50Zm11.74-40,.95-3.55-2.57-.68-.95,3.54ZM312,4.47l.16-.6-2.57-.69-.16.6Zm-1.82-1.71,1.68.45,1.11-1.67L311.77,0,310,.76Z"/><polygon class="cls-1" points="296.26 55.02 296.26 36.48 296.43 36.48 298.74 44.95 300.86 36.48 301.02 36.48 301.02 55.02 296.26 55.02"/><rect class="cls-1" x="224.35" y="52.23" width="76.66" height="4.76"/><rect class="cls-1" x="226.92" y="17.38" width="7.92" height="28.78"/></g></g></svg>